<svg xmlns="http://www.w3.org/2000/svg" viewBox="0 0 18.84 19.44"><defs><style>.cls-1{fill:#373ca6;}</style></defs><g id="Capa_2" data-name="Capa 2"><g id="Capa_1-2" data-name="Capa 1"><g id="Capa_2-2" data-name="Capa 2"><g id="Capa_1-2-2" data-name="Capa 1-2"><path class="cls-1" d="M10,0A9.56,9.56,0,0,0,0,9.11v.08A9.56,9.56,0,0,0,8.86,19.43h0a9.57,9.57,0,0,0,9.94-9.16A9.56,9.56,0,0,0,10,0ZM7,11.91A2,2,0,0,1,4.2,12l0-.05c-1-1-1-5,1.39-5.13C8.81,6.83,8.15,10.65,7,11.91Zm4.8-.14c-1-1.08-.93-5.07,1.44-5.13,2.16-.06,2.82,4,2,5a2.19,2.19,0,0,1-3.07.44,1.93,1.93,0,0,1-.33-.31Z"/></g></g></g></g></svg>