<svg xmlns="http://www.w3.org/2000/svg" viewBox="0 0 19.64 20.2"><defs><style>.cls-1{fill:none;stroke:#373ca6;stroke-miterlimit:10;}</style></defs><g id="Capa_2" data-name="Capa 2"><g id="Capa_1-2" data-name="Capa 1"><g id="Capa_2-2" data-name="Capa 2"><g id="Capa_1-2-2" data-name="Capa 1-2"><path class="cls-1" d="M10.34,1.54c-.32,0-.64-.06-1-.06A9,9,0,0,0,.5,10.59,9,9,0,0,0,9.38,19.7a9,9,0,0,0,8.88-9.11V9.84"/><path class="cls-1" d="M10.63.51h0A8.49,8.49,0,0,1,19.14,9v.67A.15.15,0,0,1,19,9.8H10.63a.15.15,0,0,1-.15-.15v-9A.15.15,0,0,1,10.63.5Z"/></g></g></g></g></svg>