<svg xmlns="http://www.w3.org/2000/svg" viewBox="0 0 16 16"><defs><style>.cls-1{fill:#373ca6;}</style></defs><g id="Capa_2" data-name="Capa 2"><g id="Capa_1-2" data-name="Capa 1"><path class="cls-1" d="M0,8a8,8,0,1,1,8,8A8,8,0,0,1,0,8M7.5,1.08A3.51,3.51,0,0,0,5.61,2.93a8.76,8.76,0,0,0-.39.87,12.34,12.34,0,0,0,2.28.29ZM4.25,3.54a8.2,8.2,0,0,1,.48-1.08,5.68,5.68,0,0,1,.6-.93A7,7,0,0,0,3.05,3.05a8.33,8.33,0,0,0,1.2.49Zm-.74,4a13.47,13.47,0,0,1,.44-3,8.69,8.69,0,0,1-1.57-.66A6.86,6.86,0,0,0,1,7.5Zm1.4-2.74a12,12,0,0,0-.4,2.74h3V5.09a13.29,13.29,0,0,1-2.59-.33m3.59.33V7.5h3a12,12,0,0,0-.4-2.74,13.29,13.29,0,0,1-2.59.33Zm-4,3.41a12.72,12.72,0,0,0,.4,2.74,14.12,14.12,0,0,1,2.59-.33V8.5Zm4,0v2.41a13.29,13.29,0,0,1,2.59.33,12.72,12.72,0,0,0,.4-2.74ZM5.22,12.2a8.76,8.76,0,0,0,.39.87A3.51,3.51,0,0,0,7.5,14.92v-3a12.34,12.34,0,0,0-2.28.29Zm.11,2.27a5.68,5.68,0,0,1-.6-.93,10.43,10.43,0,0,1-.48-1.08,8.89,8.89,0,0,0-1.2.49,7,7,0,0,0,2.28,1.52ZM4,11.51a13.26,13.26,0,0,1-.44-3H1a6.93,6.93,0,0,0,1.36,3.68,8.83,8.83,0,0,1,1.56-.67m6.73,3A7,7,0,0,0,13,13a8.89,8.89,0,0,0-1.2-.49,10.43,10.43,0,0,1-.48,1.08,5.68,5.68,0,0,1-.6.93M8.5,11.91v3a3.51,3.51,0,0,0,1.89-1.85,8.76,8.76,0,0,0,.39-.87,12.48,12.48,0,0,0-2.28-.29Zm3.56-.4a8.83,8.83,0,0,1,1.56.67A6.93,6.93,0,0,0,15,8.5H12.49a13.83,13.83,0,0,1-.43,3M15,7.5a6.86,6.86,0,0,0-1.36-3.67,9.26,9.26,0,0,1-1.56.66,14.09,14.09,0,0,1,.43,3Zm-3.71-5a8.2,8.2,0,0,1,.48,1.08A8.89,8.89,0,0,0,13,3.05a7,7,0,0,0-2.28-1.52,6.73,6.73,0,0,1,.6.93M10.78,3.8a7.47,7.47,0,0,0-.39-.87A3.51,3.51,0,0,0,8.5,1.08v3a12.34,12.34,0,0,0,2.28-.29Z"/></g></g></svg>